<?xml version="1.0" standalone="no"?>
<!DOCTYPE svg PUBLIC "-//W3C//DTD SVG 20010904//EN"
 "http://www.w3.org/TR/2001/REC-SVG-20010904/DTD/svg10.dtd">
<svg version="1.0" xmlns="http://www.w3.org/2000/svg"
 width="600.000000pt" height="450.000000pt" viewBox="0 0 600.000000 450.000000"
 preserveAspectRatio="xMidYMid meet" color="green">

<g transform="translate(0.000000,450.000000) scale(0.100000,-0.100000)"
fill="#000000" stroke="none">
<path d="M300 3845 l0 -195 2535 0 2535 0 -2 -1327 -3 -1328 -2532 -3 -2533
-2 0 -195 0 -195 2730 0 2730 0 0 1720 0 1720 -2730 0 -2730 0 0 -195z"/>
<path d="M1175 3245 c-221 -48 -395 -198 -510 -439 -165 -348 -213 -863 -105
-1148 88 -234 314 -356 590 -320 108 15 185 41 273 93 278 165 450 571 464
1094 4 155 2 194 -16 280 -49 240 -182 392 -382 440 -78 18 -232 18 -314 0z"/>
<path d="M4165 3019 c-176 -132 -319 -242 -318 -245 0 -3 36 -55 78 -115 l77
-109 36 29 c20 16 111 90 202 164 91 74 166 134 168 132 2 -1 -44 -341 -102
-754 -59 -413 -106 -760 -106 -771 0 -19 8 -20 255 -20 l254 0 6 33 c3 17 62
442 130 942 69 501 127 920 130 933 l5 22 -247 -1 -248 -1 -320 -239z"/>
<path d="M2937 2838 c-3 -13 -29 -143 -57 -290 l-52 -268 -289 0 c-159 0 -289
-2 -289 -4 0 -2 -9 -48 -20 -101 -11 -53 -20 -101 -20 -106 0 -5 125 -9 285
-9 235 0 285 -2 285 -14 0 -7 -22 -129 -50 -270 -27 -141 -50 -266 -50 -277 0
-19 6 -20 107 -17 l106 3 56 288 55 287 291 0 291 0 20 110 20 110 -288 0
c-158 0 -288 3 -288 8 0 4 25 133 55 287 30 154 55 281 55 283 0 1 -49 2 -109
2 -105 0 -109 -1 -114 -22z"/>
</g>
</svg>
